<svg width="128" height="20" viewBox="0 0 128 20" fill="none" xmlns="http://www.w3.org/2000/svg">
<g clip-path="url(#clip0_930_9197)">
<path fill-rule="evenodd" clip-rule="evenodd" d="M27.5251 5.62087H29.3357L32.9697 14.8483H31.0998L30.3634 12.9464H26.4927L25.7388 14.8483H23.8689L27.5251 5.62087ZM28.4325 8.07346L27.1525 11.2499H29.7059L28.4325 8.07346ZM33.3401 8.02411H33.9584C33.9627 7.13085 33.978 6.60412 34.0021 6.44131C34.0503 6.06632 34.2105 5.76865 34.4843 5.55016C34.7607 5.33165 35.1484 5.22266 35.6504 5.22266C36.014 5.22266 36.4218 5.30369 36.878 5.46677V6.76879C36.6257 6.69808 36.4197 6.66192 36.2573 6.66192C36.0535 6.66192 35.9049 6.70256 35.8106 6.7862C35.7426 6.84823 35.7076 6.97885 35.7076 7.17386L35.701 8.02411H36.8121V9.47628H35.7076V14.8483H33.9584V9.47628H33.3401V8.02411ZM37.4412 8.02411H38.9534V8.8915C39.1157 8.5532 39.3305 8.29618 39.5982 8.12042C39.8677 7.94494 40.1614 7.85708 40.4789 7.85708C40.7047 7.85708 40.9417 7.91486 41.1893 8.03281L40.6459 9.51058C40.442 9.40979 40.2731 9.36071 40.1418 9.36071C39.8741 9.36071 39.6461 9.52354 39.4621 9.84917C39.2757 10.1745 39.1835 10.8132 39.1835 11.7639L39.1902 12.0959V14.8483H37.4412V8.02411ZM42.75 5.22266C43.0568 5.22266 43.3198 5.33165 43.539 5.54803C43.7604 5.76442 43.87 6.02569 43.87 6.33417C43.87 6.63842 43.7604 6.89757 43.5435 7.11157C43.3264 7.32586 43.0654 7.43301 42.7608 7.43301C42.4494 7.43301 42.1844 7.32374 41.9654 7.10525C41.7438 6.88674 41.6342 6.62101 41.6342 6.30857C41.6342 6.00854 41.7438 5.75362 41.9609 5.54143C42.1778 5.32955 42.4409 5.22266 42.75 5.22266ZM41.8711 14.8483H43.6201V8.02411H41.8711V14.8483ZM52.0457 9.41217L50.588 10.1962C50.3142 9.9154 50.0444 9.72277 49.7772 9.61325C49.5098 9.50426 49.1963 9.4507 48.8367 9.4507C48.1813 9.4507 47.651 9.64123 47.2479 10.0204C46.8423 10.4017 46.6405 10.8878 46.6405 11.4834C46.6405 12.0616 46.8354 12.5329 47.2236 12.8992C47.6139 13.2655 48.1244 13.4476 48.758 13.4476C49.5405 13.4476 50.15 13.1863 50.588 12.6635L51.9668 13.589C51.2171 14.54 50.1609 15.0153 48.7951 15.0153C47.5657 15.0153 46.6032 14.6599 45.9084 13.9508C45.2136 13.2417 44.8653 12.4129 44.8653 11.4618C44.8653 10.8021 45.0338 10.1962 45.3714 9.64123C45.7111 9.08654 46.1827 8.64954 46.7896 8.33258C47.3946 8.0154 48.0717 7.85708 48.8213 7.85708C49.5161 7.85708 50.1389 7.99218 50.6912 8.26187C51.2434 8.53156 51.6953 8.91526 52.0457 9.41217ZM58.7946 8.02411H60.5436V14.8483H58.7946V14.1223C58.4528 14.4392 58.1085 14.6665 57.7643 14.8055C57.4203 14.9446 57.0457 15.0153 56.6445 15.0153C55.7392 15.0153 54.9589 14.6749 54.299 13.9917C53.6392 13.3106 53.3103 12.4622 53.3103 11.4491C53.3103 10.3973 53.6307 9.53619 54.2685 8.8638C54.9062 8.19326 55.6799 7.85708 56.5918 7.85708C57.0128 7.85708 57.405 7.93412 57.7731 8.08612C58.1414 8.23839 58.4813 8.46956 58.7946 8.77381V8.02411ZM56.9514 9.4251C56.4078 9.4251 55.9563 9.61112 55.5989 9.98612C55.2393 10.359 55.0597 10.8387 55.0597 11.4233C55.0597 12.0125 55.2417 12.4965 55.6076 12.8778C55.9736 13.2568 56.4231 13.4476 56.9578 13.4476C57.5078 13.4476 57.9661 13.2612 58.3278 12.8863C58.6918 12.5136 58.8735 12.0231 58.8735 11.4169C58.8735 10.8237 58.6918 10.3437 58.3278 9.97556C57.9661 9.60902 57.5056 9.4251 56.9514 9.4251ZM66.1724 5.62087H68.0816C69.114 5.62087 69.8572 5.71296 70.313 5.89927C70.7689 6.08558 71.1304 6.38773 71.3938 6.8031C71.6567 7.21872 71.7883 7.71773 71.7883 8.30066C71.7883 8.94509 71.6149 9.4805 71.2686 9.90695C70.9246 10.3331 70.4557 10.6308 69.8612 10.7979C69.5125 10.8944 68.8796 10.9414 67.9611 10.9414V14.8483H66.1724V5.62087ZM67.9611 9.23219H68.5375C68.9911 9.23219 69.3046 9.20001 69.4823 9.13772C69.66 9.07358 69.7979 8.97094 69.9009 8.82527C70.0018 8.67962 70.0519 8.50386 70.0519 8.29618C70.0519 7.93834 69.9094 7.6771 69.6243 7.51427C69.4185 7.3921 69.033 7.33009 68.4719 7.33009H67.9611V9.23219ZM72.9457 8.02411H74.458V8.8915C74.6198 8.5532 74.8348 8.29618 75.1024 8.12042C75.372 7.94494 75.6654 7.85708 75.9837 7.85708C76.209 7.85708 76.446 7.91486 76.6936 8.03281L76.1497 9.51058C75.9461 9.40979 75.7776 9.36071 75.6458 9.36071C75.3784 9.36071 75.1506 9.52354 74.9664 9.84917C74.78 10.1745 74.6876 10.8132 74.6876 11.7639L74.6947 12.0959V14.8483H72.9457V8.02411ZM77.5597 8.02411H79.3346V11.3056C79.3346 11.9439 79.3809 12.3872 79.4705 12.6356C79.5607 12.8842 79.7051 13.077 79.9049 13.2161C80.1041 13.3533 80.3519 13.4217 80.6434 13.4217C80.9347 13.4217 81.1849 13.3533 81.3888 13.2182C81.5927 13.0834 81.7439 12.8842 81.8424 12.6208C81.9145 12.4237 81.952 12.0038 81.952 11.3612V8.02411H83.701V10.9113C83.701 12.1022 83.6048 12.9163 83.4116 13.3555C83.1772 13.8909 82.8287 14.3002 82.3707 14.587C81.9126 14.872 81.3297 15.0153 80.6238 15.0153C79.8565 15.0153 79.2385 14.8483 78.765 14.5142C78.2913 14.1801 77.9585 13.7151 77.7657 13.1177C77.6272 12.7042 77.5597 11.9526 77.5597 10.8622V8.02411ZM90.6207 5.38943H92.3699V14.8483H90.6207V14.1223C90.2789 14.4392 89.9351 14.6665 89.5907 14.8055C89.2465 14.9446 88.872 15.0153 88.4704 15.0153C87.5655 15.0153 86.785 14.6749 86.1254 13.9917C85.4655 13.3106 85.1369 12.4622 85.1369 11.4491C85.1369 10.3973 85.457 9.53619 86.0944 8.8638C86.7323 8.19326 87.5063 7.85708 88.4179 7.85708C88.8389 7.85708 89.2311 7.93412 89.5997 8.08612C89.9675 8.24049 90.3075 8.47166 90.6207 8.77803V5.38943ZM88.7777 9.4251C88.2339 9.4251 87.7822 9.61112 87.425 9.98612C87.0654 10.359 86.8861 10.8387 86.8861 11.4233C86.8861 12.0125 87.0678 12.4965 87.434 12.8778C87.7999 13.2568 88.2495 13.4476 88.7841 13.4476C89.3341 13.4476 89.7924 13.2612 90.1541 12.8863C90.5177 12.5136 90.6999 12.0231 90.6999 11.4169C90.6999 10.8237 90.5177 10.3437 90.1541 9.97556C89.7924 9.60902 89.332 9.4251 88.7777 9.4251ZM101.125 11.918H95.5023C95.5834 12.4047 95.8005 12.792 96.1509 13.0813C96.5017 13.3684 96.951 13.5117 97.4944 13.5117C98.1476 13.5117 98.7068 13.2869 99.176 12.8372L100.644 13.5162C100.278 14.0257 99.8378 14.4028 99.3272 14.649C98.8141 14.8931 98.2069 15.0153 97.5034 15.0153C96.4121 15.0153 95.522 14.6791 94.8361 14.0043C94.1498 13.332 93.8058 12.488 93.8058 11.4747C93.8058 10.436 94.1498 9.57262 94.8361 8.88728C95.522 8.19958 96.381 7.85708 97.4179 7.85708C98.516 7.85708 99.4104 8.19958 100.099 8.88308C100.787 9.56865 101.131 10.4701 101.131 11.5945L101.125 11.918ZM99.382 10.5815C99.2656 10.2089 99.0376 9.90485 98.6979 9.67131C98.356 9.43777 97.9615 9.32218 97.51 9.32218C97.0212 9.32218 96.5938 9.4528 96.2229 9.71617C95.9933 9.879 95.7785 10.1682 95.581 10.5815H99.382ZM102.554 8.02411H104.303V8.72657C104.699 8.4012 105.061 8.17611 105.383 8.04758C105.705 7.92119 106.037 7.85708 106.374 7.85708C107.067 7.85708 107.656 8.09272 108.138 8.56377C108.544 8.96672 108.748 9.55994 108.748 10.3437V14.8483H107.012V11.8645C107.012 11.0506 106.975 10.511 106.9 10.2453C106.826 9.97769 106.694 9.77423 106.51 9.63488C106.324 9.49556 106.094 9.4251 105.821 9.4251C105.467 9.4251 105.162 9.54041 104.907 9.77185C104.653 10.0033 104.478 10.3244 104.379 10.7316C104.329 10.9456 104.303 11.4064 104.303 12.1152V14.8483H102.554V8.02411ZM110.657 5.50502H112.406V8.02411H113.445V9.50216H112.406V14.8483H110.657V9.50216H109.763V8.02411H110.657V5.50502ZM115.085 5.22266C115.391 5.22266 115.654 5.33165 115.874 5.54803C116.095 5.76442 116.205 6.02569 116.205 6.33417C116.205 6.63842 116.095 6.89757 115.878 7.11157C115.661 7.32586 115.4 7.43301 115.096 7.43301C114.784 7.43301 114.519 7.32374 114.3 7.10525C114.078 6.88674 113.969 6.62101 113.969 6.30857C113.969 6.00854 114.078 5.75362 114.296 5.54143C114.512 5.32955 114.776 5.22266 115.085 5.22266ZM114.206 14.8483H115.955V8.02411H114.206V14.8483ZM122.71 8.02411H124.459V14.8483H122.71V14.1223C122.368 14.4392 122.024 14.6665 121.68 14.8055C121.336 14.9446 120.961 15.0153 120.56 15.0153C119.655 15.0153 118.875 14.6749 118.215 13.9917C117.555 13.3106 117.226 12.4622 117.226 11.4491C117.226 10.3973 117.546 9.53619 118.184 8.8638C118.822 8.19326 119.596 7.85708 120.507 7.85708C120.928 7.85708 121.321 7.93412 121.689 8.08612C122.057 8.23839 122.397 8.46956 122.71 8.77381V8.02411ZM120.867 9.4251C120.323 9.4251 119.872 9.61112 119.514 9.98612C119.155 10.359 118.975 10.8387 118.975 11.4233C118.975 12.0125 119.157 12.4965 119.523 12.8778C119.889 13.2568 120.339 13.4476 120.873 13.4476C121.424 13.4476 121.882 13.2612 122.243 12.8863C122.607 12.5136 122.789 12.0231 122.789 11.4169C122.789 10.8237 122.607 10.3437 122.243 9.97556C121.882 9.60902 121.422 9.4251 120.867 9.4251ZM126.04 14.8483H127.789V5.38943H126.04V14.8483Z" fill="#53555A"/>
<path fill-rule="evenodd" clip-rule="evenodd" d="M4.78369 11.2892H8.00772V0.736328H4.78369V11.2892ZM4.78369 19.6398H8.00772V15.4898H4.78369V19.6398Z" fill="#E71615"/>
<path fill-rule="evenodd" clip-rule="evenodd" d="M11.3362 4.88597H14.5602V0.736328H11.3362V4.88597ZM11.3362 19.6398H14.5602V9.08684H11.3362V19.6398Z" fill="#E71615"/>
<path fill-rule="evenodd" clip-rule="evenodd" d="M15.0975 14.965H19.3445V11.8145H15.0975V14.965ZM0 14.965H10.7992V11.8145H0V14.965Z" fill="#53555A"/>
<path fill-rule="evenodd" clip-rule="evenodd" d="M8.54522 8.56172H19.3445V5.41113H8.54522V8.56172ZM0 8.56172H4.24642V5.41113H0V8.56172Z" fill="#53555A"/>
</g>
<defs>
<clipPath id="clip0_930_9197">
<rect width="128" height="19" fill="white" transform="translate(0 0.736328)"/>
</clipPath>
</defs>
</svg>
