<svg width="40" height="40" viewBox="0 0 40 40" fill="none" xmlns="http://www.w3.org/2000/svg">
<rect width="40" height="40" rx="20" fill="#E71615"/>
<path d="M17.6 23.6L19 22.15L16.85 20L19 17.85L17.6 16.4L14 20L17.6 23.6ZM22.4 23.6L26 20L22.4 16.4L21 17.85L23.15 20L21 22.15L22.4 23.6ZM13 29C12.45 29 11.9792 28.8042 11.5875 28.4125C11.1958 28.0208 11 27.55 11 27V13C11 12.45 11.1958 11.9792 11.5875 11.5875C11.9792 11.1958 12.45 11 13 11H17.2C17.4167 10.4 17.7792 9.91667 18.2875 9.55C18.7958 9.18333 19.3667 9 20 9C20.6333 9 21.2042 9.18333 21.7125 9.55C22.2208 9.91667 22.5833 10.4 22.8 11H27C27.55 11 28.0208 11.1958 28.4125 11.5875C28.8042 11.9792 29 12.45 29 13V27C29 27.55 28.8042 28.0208 28.4125 28.4125C28.0208 28.8042 27.55 29 27 29H13ZM13 27H27V13H13V27ZM20 12.25C20.2167 12.25 20.3958 12.1792 20.5375 12.0375C20.6792 11.8958 20.75 11.7167 20.75 11.5C20.75 11.2833 20.6792 11.1042 20.5375 10.9625C20.3958 10.8208 20.2167 10.75 20 10.75C19.7833 10.75 19.6042 10.8208 19.4625 10.9625C19.3208 11.1042 19.25 11.2833 19.25 11.5C19.25 11.7167 19.3208 11.8958 19.4625 12.0375C19.6042 12.1792 19.7833 12.25 20 12.25Z" fill="white"/>
</svg>
