<svg width="40" height="40" viewBox="0 0 40 40" fill="none" xmlns="http://www.w3.org/2000/svg">
<rect width="40" height="40" rx="20" fill="#E71615"/>
<g clip-path="url(#clip0_1704_10467)">
<path d="M20 9.5C17.9233 9.5 15.8932 10.1158 14.1665 11.2696C12.4398 12.4233 11.094 14.0632 10.2993 15.9818C9.50455 17.9004 9.29661 20.0116 9.70176 22.0484C10.1069 24.0852 11.1069 25.9562 12.5754 27.4246C14.0438 28.8931 15.9148 29.8931 17.9516 30.2982C19.9884 30.7034 22.0996 30.4955 24.0182 29.7007C25.9368 28.906 27.5767 27.5602 28.7304 25.8335C29.8842 24.1068 30.5 22.0767 30.5 20C30.5 17.2152 29.3938 14.5445 27.4246 12.5754C25.4555 10.6062 22.7848 9.5 20 9.5ZM29 19.25H24.5C24.4125 16.4878 23.6969 13.7819 22.4075 11.3375C24.1839 11.8234 25.7685 12.8426 26.9474 14.2576C28.1263 15.6725 28.8427 17.415 29 19.25ZM20 29C19.8327 29.0112 19.6648 29.0112 19.4975 29C17.9437 26.5221 17.0814 23.6736 17 20.75H23C22.9254 23.6715 22.0709 26.5199 20.525 29C20.3502 29.0123 20.1748 29.0123 20 29ZM17 19.25C17.0746 16.3285 17.9291 13.4801 19.475 11C19.809 10.9625 20.1461 10.9625 20.48 11C22.0417 13.4756 22.9119 16.3243 23 19.25H17ZM17.57 11.3375C16.2885 13.7837 15.5806 16.4896 15.5 19.25H11C11.1573 17.415 11.8737 15.6725 13.0526 14.2576C14.2315 12.8426 15.8161 11.8234 17.5925 11.3375H17.57ZM11.0375 20.75H15.5375C15.6158 23.5098 16.3211 26.2156 17.6 28.6625C15.8292 28.1714 14.2511 27.1499 13.0779 25.7354C11.9048 24.3209 11.1927 22.5811 11.0375 20.75ZM22.4075 28.6625C23.6969 26.2181 24.4125 23.5122 24.5 20.75H29C28.8427 22.585 28.1263 24.3275 26.9474 25.7424C25.7685 27.1574 24.1839 28.1766 22.4075 28.6625Z" fill="white"/>
</g>
<defs>
<clipPath id="clip0_1704_10467">
<rect width="24" height="24" fill="white" transform="translate(8 8)"/>
</clipPath>
</defs>
</svg>
