<svg width="41" height="40" viewBox="0 0 41 40" fill="none" xmlns="http://www.w3.org/2000/svg">
<rect x="0.333496" width="40" height="40" rx="20" fill="#E71615"/>
<path d="M17.9335 23.6L19.3335 22.15L17.1835 20L19.3335 17.85L17.9335 16.4L14.3335 20L17.9335 23.6ZM22.7335 23.6L26.3335 20L22.7335 16.4L21.3335 17.85L23.4835 20L21.3335 22.15L22.7335 23.6ZM13.3335 29C12.7835 29 12.3127 28.8042 11.921 28.4125C11.5293 28.0208 11.3335 27.55 11.3335 27V13C11.3335 12.45 11.5293 11.9792 11.921 11.5875C12.3127 11.1958 12.7835 11 13.3335 11H17.5335C17.7502 10.4 18.1127 9.91667 18.621 9.55C19.1293 9.18333 19.7002 9 20.3335 9C20.9668 9 21.5377 9.18333 22.046 9.55C22.5543 9.91667 22.9168 10.4 23.1335 11H27.3335C27.8835 11 28.3543 11.1958 28.746 11.5875C29.1377 11.9792 29.3335 12.45 29.3335 13V27C29.3335 27.55 29.1377 28.0208 28.746 28.4125C28.3543 28.8042 27.8835 29 27.3335 29H13.3335ZM13.3335 27H27.3335V13H13.3335V27ZM20.3335 12.25C20.5502 12.25 20.7293 12.1792 20.871 12.0375C21.0127 11.8958 21.0835 11.7167 21.0835 11.5C21.0835 11.2833 21.0127 11.1042 20.871 10.9625C20.7293 10.8208 20.5502 10.75 20.3335 10.75C20.1168 10.75 19.9377 10.8208 19.796 10.9625C19.6543 11.1042 19.5835 11.2833 19.5835 11.5C19.5835 11.7167 19.6543 11.8958 19.796 12.0375C19.9377 12.1792 20.1168 12.25 20.3335 12.25Z" fill="white"/>
</svg>
