<svg width="41" height="40" viewBox="0 0 41 40" fill="none" xmlns="http://www.w3.org/2000/svg">
<rect x="0.666504" width="40" height="40" rx="20" fill="#E71615"/>
<path d="M18.2665 23.6L19.6665 22.15L17.5165 20L19.6665 17.85L18.2665 16.4L14.6665 20L18.2665 23.6ZM23.0665 23.6L26.6665 20L23.0665 16.4L21.6665 17.85L23.8165 20L21.6665 22.15L23.0665 23.6ZM13.6665 29C13.1165 29 12.6457 28.8042 12.254 28.4125C11.8623 28.0208 11.6665 27.55 11.6665 27V13C11.6665 12.45 11.8623 11.9792 12.254 11.5875C12.6457 11.1958 13.1165 11 13.6665 11H17.8665C18.0832 10.4 18.4457 9.91667 18.954 9.55C19.4623 9.18333 20.0332 9 20.6665 9C21.2998 9 21.8707 9.18333 22.379 9.55C22.8873 9.91667 23.2498 10.4 23.4665 11H27.6665C28.2165 11 28.6873 11.1958 29.079 11.5875C29.4707 11.9792 29.6665 12.45 29.6665 13V27C29.6665 27.55 29.4707 28.0208 29.079 28.4125C28.6873 28.8042 28.2165 29 27.6665 29H13.6665ZM13.6665 27H27.6665V13H13.6665V27ZM20.6665 12.25C20.8832 12.25 21.0623 12.1792 21.204 12.0375C21.3457 11.8958 21.4165 11.7167 21.4165 11.5C21.4165 11.2833 21.3457 11.1042 21.204 10.9625C21.0623 10.8208 20.8832 10.75 20.6665 10.75C20.4498 10.75 20.2707 10.8208 20.129 10.9625C19.9873 11.1042 19.9165 11.2833 19.9165 11.5C19.9165 11.7167 19.9873 11.8958 20.129 12.0375C20.2707 12.1792 20.4498 12.25 20.6665 12.25Z" fill="white"/>
</svg>
