<svg width="24" height="25" viewBox="0 0 24 25" fill="none" xmlns="http://www.w3.org/2000/svg">
<g clip-path="url(#clip0_285_4048)">
<path d="M20.0025 3.80005H3.9975C3.73355 3.80201 3.48097 3.90773 3.29433 4.09438C3.10769 4.28102 3.00196 4.5336 3 4.79755V20.8025C3.00196 21.0665 3.10769 21.3191 3.29433 21.5057C3.48097 21.6924 3.73355 21.7981 3.9975 21.8H12.615V14.84H10.275V12.1175H12.615V10.115C12.615 7.79005 14.0325 6.52255 16.1175 6.52255C16.815 6.52255 17.5125 6.52255 18.21 6.62755V9.05005H16.7775C15.645 9.05005 15.4275 9.59005 15.4275 10.3775V12.11H18.1275L17.775 14.8325H15.4275V21.8H20.0025C20.2664 21.7981 20.519 21.6924 20.7057 21.5057C20.8923 21.3191 20.998 21.0665 21 20.8025V4.79755C20.998 4.5336 20.8923 4.28102 20.7057 4.09438C20.519 3.90773 20.2664 3.80201 20.0025 3.80005Z" fill="#121212"/>
</g>
<defs>
<clipPath id="clip0_285_4048">
<rect width="24" height="24" fill="white" transform="translate(0 0.800049)"/>
</clipPath>
</defs>
</svg>
