<svg width="32" height="32" viewBox="0 0 32 32" fill="none" xmlns="http://www.w3.org/2000/svg">
<path d="M14.6667 28.0003C12.4445 28.0003 10.5556 27.2225 9.00008 25.667C7.44453 24.1114 6.66675 22.2225 6.66675 20.0003V12.0003L13.3334 18.667L11.4667 20.567L9.33341 18.4337V20.0003C9.33341 21.467 9.85564 22.7225 10.9001 23.767C11.9445 24.8114 13.2001 25.3337 14.6667 25.3337C16.1334 25.3337 17.389 24.8114 18.4334 23.767C19.4779 22.7225 20.0001 21.467 20.0001 20.0003V15.767C19.2001 15.4559 18.5556 14.9614 18.0667 14.2837C17.5779 13.6059 17.3334 12.8448 17.3334 12.0003C17.3334 11.1559 17.5779 10.3948 18.0667 9.71699C18.5556 9.03921 19.2001 8.54477 20.0001 8.23366V2.66699H22.6667V8.23366C23.4667 8.54477 24.1112 9.03921 24.6001 9.71699C25.089 10.3948 25.3334 11.1559 25.3334 12.0003C25.3334 12.8448 25.089 13.6114 24.6001 14.3003C24.1112 14.9892 23.4667 15.4781 22.6667 15.767V20.0003C22.6667 22.2225 21.889 24.1114 20.3334 25.667C18.7779 27.2225 16.889 28.0003 14.6667 28.0003ZM21.3334 13.3337C21.7112 13.3337 22.0279 13.2059 22.2834 12.9503C22.539 12.6948 22.6667 12.3781 22.6667 12.0003C22.6667 11.6225 22.539 11.3059 22.2834 11.0503C22.0279 10.7948 21.7112 10.667 21.3334 10.667C20.9556 10.667 20.639 10.7948 20.3834 11.0503C20.1279 11.3059 20.0001 11.6225 20.0001 12.0003C20.0001 12.3781 20.1279 12.6948 20.3834 12.9503C20.639 13.2059 20.9556 13.3337 21.3334 13.3337Z" fill="#E71615"/>
</svg>
