<svg width="24" height="25" viewBox="0 0 24 25" fill="none" xmlns="http://www.w3.org/2000/svg">
<g clip-path="url(#clip0_285_4043)">
<path d="M16.8041 9.07626C17.4006 9.07626 17.8841 8.59273 17.8841 7.99626C17.8841 7.39979 17.4006 6.91626 16.8041 6.91626C16.2077 6.91626 15.7241 7.39979 15.7241 7.99626C15.7241 8.59273 16.2077 9.07626 16.8041 9.07626Z" fill="#121212"/>
<path d="M12.0001 8.17798C11.086 8.17798 10.1924 8.44903 9.43242 8.95687C8.67239 9.4647 8.08002 10.1865 7.73022 11.031C7.38042 11.8755 7.2889 12.8048 7.46722 13.7013C7.64555 14.5978 8.08572 15.4213 8.73207 16.0676C9.37842 16.714 10.2019 17.1541 11.0984 17.3325C11.9949 17.5108 12.9242 17.4193 13.7687 17.0695C14.6132 16.7197 15.335 16.1273 15.8428 15.3673C16.3507 14.6073 16.6217 13.7137 16.6217 12.7996C16.6217 11.5739 16.1348 10.3984 15.2681 9.53163C14.4013 8.6649 13.2258 8.17798 12.0001 8.17798ZM12.0001 15.7996C11.4067 15.7996 10.8267 15.6237 10.3334 15.294C9.84001 14.9644 9.45549 14.4959 9.22843 13.9477C9.00137 13.3995 8.94196 12.7963 9.05771 12.2144C9.17347 11.6324 9.45919 11.0979 9.87875 10.6783C10.2983 10.2588 10.8329 9.97303 11.4148 9.85727C11.9967 9.74152 12.5999 9.80093 13.1481 10.028C13.6963 10.2551 14.1648 10.6396 14.4945 11.1329C14.8241 11.6263 15.0001 12.2063 15.0001 12.7996C15.0001 13.5953 14.684 14.3583 14.1214 14.9209C13.5588 15.4836 12.7957 15.7996 12.0001 15.7996Z" fill="#121212"/>
<path d="M12 5.4217C14.4031 5.4217 14.6878 5.43085 15.6368 5.4742C16.2075 5.48099 16.7728 5.58582 17.308 5.7841C17.6961 5.93386 18.0486 6.1632 18.3428 6.45737C18.6369 6.75154 18.8663 7.10402 19.016 7.49215C19.2143 8.02736 19.3191 8.59266 19.3259 9.16337C19.3692 10.1123 19.3784 10.397 19.3784 12.8001C19.3784 15.2032 19.3693 15.4879 19.3259 16.4369C19.3191 17.0076 19.2143 17.5729 19.016 18.1081C18.8663 18.4962 18.6369 18.8487 18.3428 19.1429C18.0486 19.437 17.6961 19.6664 17.308 19.8161C16.7728 20.0144 16.2075 20.1193 15.6368 20.126C14.6879 20.1693 14.4033 20.1785 12 20.1785C9.5967 20.1785 9.31215 20.1694 8.36325 20.126C7.79253 20.1193 7.22723 20.0144 6.69202 19.8161C6.3039 19.6664 5.95142 19.437 5.65725 19.1429C5.36308 18.8487 5.13374 18.4962 4.98397 18.1081C4.78569 17.5729 4.68087 17.0076 4.67408 16.4369C4.6308 15.4879 4.62157 15.2032 4.62157 12.8001C4.62157 10.397 4.63073 10.1123 4.67408 9.16337C4.68087 8.59266 4.78569 8.02736 4.98397 7.49215C5.13373 7.10401 5.36307 6.75151 5.65724 6.45733C5.95141 6.16315 6.30389 5.9338 6.69202 5.78402C7.22723 5.58574 7.79253 5.48092 8.36325 5.47412C9.31222 5.43085 9.59693 5.4217 12 5.4217ZM12 3.80005C9.55575 3.80005 9.24922 3.8104 8.2893 3.8542C7.54279 3.86919 6.80422 4.01064 6.105 4.27255C5.50705 4.50378 4.96401 4.8574 4.51068 5.31073C4.05735 5.76406 3.70374 6.3071 3.4725 6.90505C3.21055 7.60439 3.06909 8.34309 3.05415 9.08972C3.01035 10.0493 3 10.3558 3 12.8C3 15.2443 3.01035 15.5508 3.05415 16.5107C3.0691 17.2574 3.21056 17.9961 3.4725 18.6954C3.70374 19.2934 4.05735 19.8364 4.51068 20.2897C4.96401 20.7431 5.50705 21.0967 6.105 21.3279C6.80434 21.5899 7.54304 21.7313 8.28968 21.7463C9.24923 21.7897 9.55575 21.8 12 21.8C14.4443 21.8 14.7508 21.7897 15.7107 21.7459C16.4573 21.7309 17.196 21.5895 17.8954 21.3275C18.4933 21.0963 19.0364 20.7427 19.4897 20.2894C19.943 19.836 20.2966 19.293 20.5279 18.695C20.7898 17.9957 20.9313 17.257 20.9462 16.5104C20.9897 15.5508 21 15.2443 21 12.8C21 10.3558 20.9896 10.0493 20.9459 9.08935C20.9309 8.34284 20.7894 7.60427 20.5275 6.90505C20.2962 6.30717 19.9426 5.7642 19.4893 5.31094C19.0359 4.85767 18.4929 4.50412 17.895 4.27292C17.1957 4.01098 16.457 3.86953 15.7103 3.85457C14.7508 3.8104 14.4443 3.80005 12 3.80005Z" fill="#121212"/>
</g>
<defs>
<clipPath id="clip0_285_4043">
<rect width="24" height="24" fill="white" transform="translate(0 0.800049)"/>
</clipPath>
</defs>
</svg>
