<svg width="85" height="61" viewBox="0 0 85 61" fill="none" xmlns="http://www.w3.org/2000/svg">
<path d="M50.697 26.0932V36.1792H47.772V34.7062C47.4734 35.2179 47.0399 35.6379 46.519 35.9202C45.9798 36.2038 45.3781 36.3476 44.769 36.3382C43.509 36.3382 42.5673 35.9865 41.944 35.2832C41.3206 34.5798 41.0096 33.5188 41.011 32.1002V26.0932H44.011V32.1602C44.011 33.3802 44.5346 33.9902 45.582 33.9902C46.2046 33.9902 46.7086 33.7782 47.094 33.3542C47.4793 32.9302 47.6716 32.3732 47.671 31.6832V26.0932H50.697ZM62.167 21.4932V36.1792H59.203V34.6872C58.8958 35.2057 58.4478 35.6263 57.911 35.9002C57.3263 36.1987 56.6773 36.3491 56.021 36.3382C55.2016 36.3517 54.397 36.1194 53.711 35.6712C53.0189 35.2086 52.471 34.5605 52.13 33.8012C51.752 33.0012 51.563 32.0828 51.563 31.0462C51.563 30.0095 51.752 29.0978 52.13 28.3112C52.4705 27.5652 53.0151 26.9307 53.701 26.4812C54.3942 26.0439 55.2005 25.8197 56.02 25.8362C56.662 25.8283 57.2966 25.9751 57.87 26.2642C58.404 26.5285 58.8523 26.9386 59.163 27.4472V21.4932H62.167ZM58.611 33.2842C59.011 32.7742 59.211 32.0408 59.211 31.0842C59.211 30.1422 59.0086 29.4162 58.604 28.9062C58.1993 28.3962 57.6326 28.1408 56.904 28.1402C56.1606 28.1402 55.5836 28.3922 55.173 28.8962C54.7623 29.4002 54.557 30.1162 54.557 31.0442C54.557 31.9988 54.7623 32.7382 55.173 33.2622C55.5836 33.7862 56.1606 34.0482 56.904 34.0482C57.642 34.0495 58.211 33.7948 58.611 33.2842ZM73.637 26.0932V36.1792H70.672V34.6872C70.3648 35.206 69.9164 35.6268 69.379 35.9002C68.7945 36.1979 68.1458 36.3476 67.49 36.3362C66.6712 36.3583 65.8643 36.1366 65.1718 35.6991C64.4794 35.2616 63.9326 34.6281 63.601 33.8792C63.223 33.0905 63.034 32.1788 63.034 31.1442C63.034 30.1095 63.223 29.1875 63.601 28.3782C63.9401 27.6152 64.4882 26.9638 65.182 26.4992C65.8679 26.0528 66.6717 25.8219 67.49 25.8362C68.1483 25.8256 68.7985 25.9832 69.379 26.2942C69.9148 26.5789 70.3621 27.0054 70.672 27.5272V26.0932H73.637ZM70.076 33.2932C70.476 32.7892 70.676 32.0598 70.676 31.1052C70.676 30.1505 70.476 29.4172 70.076 28.9052C69.676 28.3938 69.1056 28.1385 68.365 28.1392C67.6243 28.1398 67.0473 28.4055 66.634 28.9362C66.2233 29.4695 66.0176 30.2058 66.017 31.1452C66.0163 32.0845 66.2186 32.8038 66.624 33.3032C67.0286 33.7998 67.609 34.0485 68.365 34.0492C69.107 34.0498 69.6773 33.7982 70.076 33.2942V33.2932ZM40.4 36.3212H36.673L32.663 31.7482V36.3212H29.621V21.4932H32.663V30.4982L36.491 26.1272H40.138L35.806 31.0272L40.4 36.3212ZM21.287 36.3262L15.449 29.6062L18.637 36.3262H16.427L13.175 29.4752L14.527 36.3262H13.169L11.816 29.4652V36.3262H11.283V21.4932H11.816V28.8932L13.188 21.4932H14.542L13.164 28.9252L16.479 21.4932H18.665L15.363 28.8982L21.359 21.4932H24.785L18.583 29.1542L24.814 36.3262H21.287Z" fill="#1E1E1E"/>
<path d="M76.156 36.1631C77.0656 36.1631 77.803 35.4258 77.803 34.5161C77.803 33.6065 77.0656 32.8691 76.156 32.8691C75.2464 32.8691 74.509 33.6065 74.509 34.5161C74.509 35.4258 75.2464 36.1631 76.156 36.1631Z" fill="#1E1E1E"/>
</svg>
