<svg width="32" height="32" viewBox="0 0 32 32" fill="none" xmlns="http://www.w3.org/2000/svg">
<path d="M15.9999 29.3337C12.911 28.5559 10.361 26.7837 8.34992 24.017C6.33881 21.2503 5.33325 18.1781 5.33325 14.8003V6.66699L15.9999 2.66699L26.6666 6.66699V14.8003C26.6666 18.1781 25.661 21.2503 23.6499 24.017C21.6388 26.7837 19.0888 28.5559 15.9999 29.3337ZM15.9999 26.5337C18.311 25.8003 20.2221 24.3337 21.7333 22.1337C23.2444 19.9337 23.9999 17.4892 23.9999 14.8003V8.50033L15.9999 5.50033L7.99992 8.50033V14.8003C7.99992 17.4892 8.75547 19.9337 10.2666 22.1337C11.7777 24.3337 13.6888 25.8003 15.9999 26.5337ZM13.3333 21.3337H18.6666C19.0444 21.3337 19.361 21.2059 19.6166 20.9503C19.8721 20.6948 19.9999 20.3781 19.9999 20.0003V16.0003C19.9999 15.6225 19.8721 15.3059 19.6166 15.0503C19.361 14.7948 19.0444 14.667 18.6666 14.667V13.3337C18.6666 12.6003 18.4055 11.9725 17.8833 11.4503C17.361 10.9281 16.7333 10.667 15.9999 10.667C15.2666 10.667 14.6388 10.9281 14.1166 11.4503C13.5944 11.9725 13.3333 12.6003 13.3333 13.3337V14.667C12.9555 14.667 12.6388 14.7948 12.3833 15.0503C12.1277 15.3059 11.9999 15.6225 11.9999 16.0003V20.0003C11.9999 20.3781 12.1277 20.6948 12.3833 20.9503C12.6388 21.2059 12.9555 21.3337 13.3333 21.3337ZM14.6666 14.667V13.3337C14.6666 12.9559 14.7944 12.6392 15.0499 12.3837C15.3055 12.1281 15.6221 12.0003 15.9999 12.0003C16.3777 12.0003 16.6944 12.1281 16.9499 12.3837C17.2055 12.6392 17.3333 12.9559 17.3333 13.3337V14.667H14.6666Z" fill="#E71615"/>
</svg>
