<svg width="78" height="34" viewBox="0 0 78 34" fill="none" xmlns="http://www.w3.org/2000/svg">
<g clip-path="url(#clip0_930_9162)">
<path fill-rule="evenodd" clip-rule="evenodd" d="M9.80639 9.30029V26.2523H6.29446V9.30029H0V6.12695H16.3845V9.30029H9.80639Z" fill="#68696B"/>
<path fill-rule="evenodd" clip-rule="evenodd" d="M28.3252 19.9471H17.992C18.0532 21.1193 18.4494 22.0306 19.1806 22.6808C19.9119 23.3311 20.8934 23.6562 22.1253 23.6562C23.6651 23.6562 24.8358 23.2486 25.6372 22.4335L26.9474 25.0574C25.7588 26.0355 23.9848 26.5255 21.6255 26.5273C19.4193 26.5273 17.675 25.8706 16.3927 24.5573C15.1104 23.2441 14.4684 21.4124 14.4666 19.0624C14.4666 16.7453 15.1716 14.8679 16.5818 13.43C17.2371 12.7373 18.0253 12.1887 18.8975 11.8181C19.7697 11.4476 20.7074 11.2631 21.6525 11.276C23.7507 11.276 25.4346 11.9125 26.7043 13.1855C27.974 14.4585 28.6043 16.0795 28.5953 18.0486C28.5684 18.6927 28.4779 19.3324 28.3252 19.9581V19.9471ZM18.1136 17.3644H25.2239C24.9879 15.2122 23.8173 14.1362 21.7119 14.1362C19.7813 14.1343 18.5818 15.2132 18.1136 17.3727V17.3644Z" fill="#68696B"/>
<path fill-rule="evenodd" clip-rule="evenodd" d="M40.6223 26.2494V17.7487C40.6223 16.494 40.3863 15.5782 39.9145 15.0012C39.4426 14.4243 38.6709 14.1358 37.5993 14.1358C37.0446 14.151 36.5009 14.2967 36.0108 14.5616C35.4974 14.8053 35.0469 15.1675 34.6952 15.6194V26.2522H31.3184V11.5394H33.7497L34.371 12.9131C35.2895 11.8141 36.6403 11.2646 38.4233 11.2646C40.1432 11.2646 41.5012 11.7885 42.4971 12.8362C43.4931 13.8839 43.991 15.3492 43.991 17.2322V26.2577H40.6223V26.2494Z" fill="#68696B"/>
<path fill-rule="evenodd" clip-rule="evenodd" d="M46.6951 18.8585C46.6951 16.6166 47.3318 14.7895 48.6051 13.3773C49.8784 11.9651 51.5605 11.2599 53.6515 11.2617C55.8487 11.2617 57.5551 11.9394 58.7708 13.2949C59.9864 14.6503 60.5943 16.5048 60.5943 18.8585C60.5943 21.203 59.9747 23.0667 58.7357 24.4496C57.4966 25.8325 55.8018 26.524 53.6515 26.524C51.4543 26.524 49.7433 25.8261 48.5186 24.4304C47.294 23.0347 46.6843 21.1774 46.6897 18.8585H46.6951ZM50.2071 18.8585C50.2071 22.1005 51.3552 23.7215 53.6515 23.7215C54.1388 23.736 54.6221 23.6282 55.0589 23.4078C55.4956 23.1874 55.8723 22.8611 56.1557 22.4577C56.7717 21.617 57.0797 20.4172 57.0797 18.8585C57.0797 15.6641 55.936 14.066 53.6488 14.0641C53.1601 14.0483 52.6751 14.1554 52.2369 14.3759C51.7986 14.5964 51.4206 14.9234 51.1364 15.328C50.5168 16.1724 50.2071 17.3492 50.2071 18.8585Z" fill="#68696B"/>
<path fill-rule="evenodd" clip-rule="evenodd" d="M64.1982 26.2518V14.3552H62.3477V11.5391H67.6156V26.2518H64.1982Z" fill="#68696B"/>
<path fill-rule="evenodd" clip-rule="evenodd" d="M72.1296 6.05862L75.5065 5.23438V21.7687C75.5065 23.5821 76.0378 24.6627 77.1004 25.0107C76.5781 26.0181 75.6866 26.5219 74.4259 26.5219C72.8951 26.5219 72.1296 25.4412 72.1296 23.2798V6.05312V6.05862Z" fill="#68696B"/>
<path fill-rule="evenodd" clip-rule="evenodd" d="M1.06444 32.3763V33.6786H0.610596V30.2855C0.953684 30.269 1.15089 30.2607 1.23193 30.2607C2.19727 30.2607 2.67993 30.5895 2.67993 31.2471C2.67993 32.0072 2.25309 32.3873 1.39942 32.3873C1.3481 32.3873 1.23734 32.3873 1.06444 32.3653V32.3763ZM1.06444 30.7141V31.9614L1.36701 31.9834C1.92892 31.9834 2.20987 31.7581 2.20987 31.3075C2.20987 30.8569 1.91001 30.6893 1.31028 30.6893C1.22786 30.6916 1.1457 30.6999 1.06444 30.7141Z" fill="#68696B"/>
<path fill-rule="evenodd" clip-rule="evenodd" d="M3.8037 30.7137V31.6533H4.90051V32.0435H3.8037V33.2634H5.30843V33.6782H3.34985V30.2988H5.33274V30.7137H3.8037Z" fill="#68696B"/>
<path fill-rule="evenodd" clip-rule="evenodd" d="M7.35339 30.7137V33.6782H6.89954V30.7137H5.84326V30.2988H8.4583V30.7137H7.35339Z" fill="#68696B"/>
<path fill-rule="evenodd" clip-rule="evenodd" d="M10.8896 33.679L10.0036 32.2284C9.9036 32.2284 9.73341 32.2284 9.5227 32.2064V33.6818H9.06885V30.2859L9.42274 30.2694C9.64156 30.2694 9.80095 30.2529 9.9009 30.2529C10.6987 30.2529 11.0977 30.5762 11.0977 31.2228C11.0994 31.4299 11.0317 31.6314 10.9059 31.7943C10.7945 31.9522 10.6318 32.0651 10.4466 32.113L11.411 33.668H10.8896V33.679ZM9.5227 30.7145V31.8135C9.62748 31.8277 9.73305 31.835 9.83876 31.8355C10.0456 31.8514 10.2524 31.8045 10.4331 31.7008C10.5001 31.6427 10.5522 31.5687 10.5847 31.4854C10.6172 31.402 10.6291 31.3119 10.6195 31.2228C10.6255 31.143 10.61 31.063 10.5748 30.9914C10.5396 30.9197 10.486 30.8592 10.4196 30.8162C10.2241 30.7194 10.007 30.6768 9.79014 30.6925C9.74421 30.6898 9.65507 30.698 9.5227 30.7145Z" fill="#68696B"/>
<path fill-rule="evenodd" clip-rule="evenodd" d="M11.7164 31.9588C11.7009 31.5201 11.8282 31.0884 12.0784 30.7307C12.1886 30.5734 12.3353 30.4463 12.5054 30.3605C12.6756 30.2747 12.8639 30.2329 13.0537 30.2389C13.253 30.2262 13.4525 30.2605 13.6367 30.3392C13.8209 30.4178 13.9847 30.5386 14.1154 30.6922C14.3797 31.0577 14.5097 31.5059 14.4828 31.9588C14.5095 32.4241 14.3789 32.8846 14.1127 33.2639C13.9853 33.422 13.8229 33.5472 13.6389 33.6293C13.4548 33.7114 13.2543 33.7481 13.0537 33.7365C12.862 33.7435 12.6717 33.7016 12.4999 33.6148C12.3282 33.5279 12.1805 33.3988 12.0703 33.2392C11.8217 32.8624 11.6977 32.4149 11.7164 31.9616V31.9588ZM12.1919 31.9588C12.1803 32.297 12.2587 32.6321 12.4188 32.9287C12.4808 33.0476 12.5746 33.1463 12.6893 33.2133C12.804 33.2804 12.935 33.3132 13.0672 33.3078C13.2053 33.3147 13.3429 33.2854 13.4668 33.2229C13.5907 33.1604 13.6968 33.0667 13.775 32.9507C13.9538 32.6491 14.0386 32.2994 14.0181 31.9478C14.0181 31.0778 13.7002 30.6428 13.0645 30.6428C12.9361 30.6368 12.8084 30.6663 12.6952 30.7282C12.582 30.7902 12.4874 30.8822 12.4215 30.9945C12.2604 31.2883 12.1854 31.623 12.2054 31.9588H12.1919Z" fill="#68696B"/>
<path fill-rule="evenodd" clip-rule="evenodd" d="M15.231 33.6782V30.2988H15.6821V33.2634H17.1841V33.6782H15.231Z" fill="#68696B"/>
<path fill-rule="evenodd" clip-rule="evenodd" d="M18.2458 30.7137V31.6533H19.3453V32.0435H18.2458V33.2634H19.7533V33.6782H17.792V30.2988H19.7776V30.7137H18.2458Z" fill="#68696B"/>
<path fill-rule="evenodd" clip-rule="evenodd" d="M20.4395 30.2852H20.9014V32.5985C20.8971 32.6933 20.9124 32.7878 20.9463 32.8762C20.9801 32.9645 21.0318 33.0447 21.098 33.1114C21.1641 33.1782 21.2433 33.2302 21.3305 33.2639C21.4176 33.2977 21.5107 33.3125 21.6038 33.3074C21.7022 33.314 21.8008 33.3001 21.8937 33.2666C21.9866 33.233 22.0718 33.1805 22.1441 33.1123C22.2098 33.0423 22.2606 32.9595 22.2936 32.8687C22.3266 32.778 22.341 32.6814 22.3359 32.5848V30.2852H22.7897V32.6342C22.7982 32.7827 22.7745 32.9313 22.7204 33.0694C22.6662 33.2075 22.5829 33.3319 22.4764 33.4338C22.2349 33.6314 21.9292 33.7295 21.62 33.7085C21.3097 33.7316 21.0024 33.6333 20.7609 33.4338C20.6566 33.329 20.5755 33.2027 20.5233 33.0633C20.4711 32.924 20.449 32.7748 20.4584 32.626V30.2852H20.4395Z" fill="#68696B"/>
<path fill-rule="evenodd" clip-rule="evenodd" d="M26.1369 33.6782L25.7425 31.5077L25.0158 33.7249H24.9023L24.1567 31.5077L23.7704 33.6782H23.3381L23.9622 30.2988H24.1675L24.959 32.7633L25.6884 30.2988H25.8937L26.5664 33.6782H26.1369Z" fill="#68696B"/>
<path fill-rule="evenodd" clip-rule="evenodd" d="M30.589 33.679L30.3594 32.9647H29.1221L28.8763 33.679H28.3684L29.7192 30.2529H29.8407L31.0915 33.679H30.589ZM29.7597 31.1404L29.2437 32.6267H30.2297L29.7597 31.1404Z" fill="#68696B"/>
<path fill-rule="evenodd" clip-rule="evenodd" d="M33.8225 33.7249L32.1043 31.2522V33.6782H31.6748V30.2988H31.8558L33.528 32.6342V30.2988H33.9576V33.7249H33.8225Z" fill="#68696B"/>
<path fill-rule="evenodd" clip-rule="evenodd" d="M35.511 33.6785H34.8411V30.2853C35.2679 30.2688 35.538 30.2606 35.6515 30.2606C35.8546 30.2504 36.0576 30.2835 36.2474 30.3578C36.4373 30.4321 36.6097 30.5459 36.7537 30.692C36.892 30.8464 36.999 31.0271 37.0686 31.2237C37.1381 31.4203 37.1688 31.629 37.1589 31.8377C37.1589 33.0557 36.606 33.6647 35.5002 33.6647L35.511 33.6785ZM35.2949 30.7139V33.2389C35.4195 33.2548 35.5449 33.2621 35.6704 33.2608C35.815 33.2667 35.9588 33.2365 36.0892 33.1728C36.2197 33.1091 36.3328 33.0139 36.4187 32.8954C36.6152 32.5986 36.7101 32.2443 36.6889 31.8871C36.6889 31.0885 36.3359 30.6892 35.6299 30.6892C35.5894 30.6892 35.4894 30.6974 35.2949 30.7139Z" fill="#68696B"/>
<path fill-rule="evenodd" clip-rule="evenodd" d="M39.9145 30.7137V31.6533H41.0113V32.0435H39.9145V33.2634H41.4193V33.6782H39.4607V30.2988H41.4463V30.7137H39.9145Z" fill="#68696B"/>
<path fill-rule="evenodd" clip-rule="evenodd" d="M44.2558 33.7249L42.5377 31.2522V33.6782H42.1082V30.2988H42.2892L43.9614 32.6342V30.2988H44.3909V33.7249H44.2558Z" fill="#68696B"/>
<path fill-rule="evenodd" clip-rule="evenodd" d="M45.728 30.7137V31.6533H46.8248V32.0435H45.728V33.2634H47.2327V33.6782H45.2742V30.2988H47.2598V30.7137H45.728Z" fill="#68696B"/>
<path fill-rule="evenodd" clip-rule="evenodd" d="M49.7532 33.679L48.8671 32.2284C48.7644 32.2284 48.5969 32.2284 48.3862 32.2064V33.6818H47.9324V30.2859L48.2863 30.2694C48.5051 30.2694 48.6645 30.2529 48.7644 30.2529C49.5623 30.2529 49.9612 30.5762 49.9612 31.2228C49.9629 31.4299 49.8953 31.6314 49.7694 31.7943C49.6587 31.9517 49.4971 32.0645 49.3128 32.113L50.2773 33.668H49.7532V33.679ZM48.3862 30.7145V31.8135C48.4919 31.8277 48.5984 31.8351 48.705 31.8355C48.9118 31.8514 49.1187 31.8045 49.2993 31.7008C49.3664 31.6427 49.4184 31.5687 49.4509 31.4854C49.4834 31.402 49.4954 31.3119 49.4857 31.2228C49.4917 31.143 49.4763 31.063 49.4411 30.9914C49.4059 30.9197 49.3522 30.8592 49.2858 30.8162C49.0895 30.7191 48.8714 30.6764 48.6537 30.6925C48.6077 30.6898 48.5186 30.698 48.3862 30.7145Z" fill="#68696B"/>
<path fill-rule="evenodd" clip-rule="evenodd" d="M53.0491 30.5328L52.8599 30.912C52.6692 30.754 52.4331 30.6634 52.1873 30.6537C52.0331 30.6485 51.8797 30.6795 51.7392 30.7443C51.5986 30.8091 51.4746 30.906 51.3768 31.0274C51.1643 31.3104 51.0572 31.6608 51.0743 32.0165C51.0576 32.3572 51.1621 32.6927 51.3687 32.9616C51.468 33.0801 51.5927 33.174 51.7332 33.2359C51.8737 33.2978 52.0262 33.3261 52.1792 33.3188C52.2865 33.323 52.3936 33.3056 52.4943 33.2674C52.5949 33.2292 52.6871 33.171 52.7654 33.0962V32.3049H52.3061V31.9121H53.222V33.382C53.0729 33.5014 52.9007 33.5875 52.7168 33.6347C52.5116 33.6972 52.2988 33.7296 52.0846 33.7309C51.8811 33.7401 51.6782 33.7024 51.4911 33.6205C51.304 33.5387 51.1375 33.4149 51.004 33.2583C50.7252 32.9011 50.584 32.4527 50.6069 31.9972C50.5872 31.5319 50.7439 31.0765 51.0445 30.7251C51.1946 30.5613 51.3779 30.4327 51.5818 30.3482C51.7857 30.2638 52.0052 30.2255 52.2251 30.2361C52.5262 30.2292 52.8193 30.3348 53.0491 30.5328Z" fill="#68696B"/>
<path fill-rule="evenodd" clip-rule="evenodd" d="M55.2048 32.1644V33.6782H54.7509V32.1644L53.6812 30.2988H54.1485L54.9752 31.7742L55.8045 30.2988H56.2719L55.2048 32.1644Z" fill="#68696B"/>
<path fill-rule="evenodd" clip-rule="evenodd" d="M58.263 33.5224L58.4278 33.0966C58.6221 33.2313 58.8494 33.3083 59.0843 33.3191C59.2399 33.3263 59.3924 33.2733 59.5111 33.1708C59.5636 33.124 59.6054 33.066 59.6334 33.0009C59.6614 32.9359 59.675 32.8653 59.6732 32.7943C59.6734 32.6817 59.6425 32.5713 59.584 32.4756C59.4623 32.3327 59.3071 32.2231 59.1329 32.1569L58.8627 32.0306C58.6713 31.9512 58.5063 31.8177 58.3873 31.6459C58.2932 31.485 58.2463 31.3 58.2522 31.1129C58.2505 30.9949 58.2738 30.8779 58.3204 30.7698C58.367 30.6618 58.4359 30.5651 58.5224 30.4865C58.7067 30.3165 58.9491 30.2267 59.1977 30.2364C59.4661 30.2097 59.7357 30.2734 59.9649 30.4178L59.8299 30.8189C59.747 30.7618 59.6559 30.7182 59.5597 30.6898C59.4486 30.6497 59.3318 30.6283 59.2139 30.6266C59.1474 30.6229 59.0807 30.6329 59.0181 30.656C58.9554 30.6791 58.898 30.7149 58.8492 30.7612C58.8053 30.8062 58.7708 30.8599 58.7481 30.919C58.7253 30.9781 58.7147 31.0412 58.7169 31.1047C58.7157 31.1861 58.7323 31.2668 58.7655 31.3409C58.7956 31.41 58.8409 31.471 58.8979 31.5195C59.0073 31.5978 59.124 31.665 59.2464 31.7201L59.5165 31.852C59.7096 31.9216 59.8747 32.0541 59.9861 32.229C60.0975 32.4039 60.149 32.6114 60.1324 32.8191C60.1333 32.9427 60.1067 33.0649 60.0548 33.1766C60.0029 33.2884 59.927 33.3869 59.8326 33.4647C59.6055 33.6558 59.3165 33.7537 59.0221 33.7395C58.7533 33.7469 58.4886 33.6712 58.263 33.5224Z" fill="#68696B"/>
<path fill-rule="evenodd" clip-rule="evenodd" d="M61.2588 30.7137V31.6533H62.3583V32.0435H61.2588V33.2634H62.7662V33.6782H60.8076V30.2988H62.7905V30.7137H61.2588Z" fill="#68696B"/>
<path fill-rule="evenodd" clip-rule="evenodd" d="M65.2869 33.679L64.3954 32.2256C64.2955 32.2256 64.1252 32.2256 63.9145 32.2036V33.679H63.4607V30.2859L63.8146 30.2694C64.0325 30.2584 64.1919 30.2529 64.2927 30.2529C65.0924 30.2529 65.4913 30.5762 65.4895 31.2228C65.4908 31.4298 65.4232 31.6312 65.2977 31.7943C65.1864 31.9522 65.0237 32.0651 64.8385 32.113L65.8029 33.668H65.2869V33.679ZM63.9199 30.7145V31.8135C64.0247 31.8277 64.1303 31.835 64.236 31.8355C64.4429 31.8514 64.6497 31.8045 64.8303 31.7008C64.8974 31.6427 64.9494 31.5687 64.9819 31.4854C65.0144 31.402 65.0264 31.3119 65.0167 31.2228C65.0227 31.143 65.0073 31.063 64.9721 30.9914C64.9369 30.9197 64.8832 30.8592 64.8168 30.8162C64.6213 30.7195 64.4042 30.6769 64.1874 30.6925C64.1415 30.6898 64.0523 30.698 63.9199 30.7145Z" fill="#68696B"/>
<path fill-rule="evenodd" clip-rule="evenodd" d="M67.4318 33.7249H67.2021L65.9648 30.2988H66.4673L67.3237 32.788L68.1449 30.2988H68.6339L67.4318 33.7249Z" fill="#68696B"/>
<path d="M69.7226 30.2988H69.2688V33.6782H69.7226V30.2988Z" fill="#68696B"/>
<path fill-rule="evenodd" clip-rule="evenodd" d="M72.7699 30.4224L72.6187 30.818C72.4125 30.6943 72.1739 30.6377 71.9352 30.6559C71.7957 30.6527 71.6577 30.6862 71.5347 30.7531C71.4116 30.82 71.3076 30.918 71.2328 31.0378C71.0443 31.3301 70.9499 31.6748 70.9627 32.0242C70.947 32.3584 71.0422 32.6883 71.2328 32.9611C71.3162 33.0706 71.4228 33.1597 71.5446 33.2217C71.6665 33.2836 71.8005 33.3169 71.9367 33.319C72.073 33.3211 72.2079 33.292 72.3316 33.2339C72.4552 33.1757 72.5644 33.09 72.6511 32.983L72.8996 33.3375C72.7658 33.4705 72.6067 33.5745 72.4321 33.643C72.2574 33.7115 72.0709 33.7431 71.8839 33.7358C71.6877 33.7447 71.4923 33.706 71.3138 33.6228C71.1353 33.5397 70.9788 33.4146 70.8573 33.2578C70.5939 32.8946 70.4613 32.4503 70.4818 31.9994C70.4646 31.5451 70.6063 31.0993 70.8816 30.7411C71.0031 30.5813 71.1597 30.4528 71.339 30.366C71.5182 30.2791 71.7151 30.2363 71.9136 30.241C72.2097 30.2239 72.5051 30.2865 72.7699 30.4224Z" fill="#68696B"/>
<path fill-rule="evenodd" clip-rule="evenodd" d="M74.0369 30.7137V31.6533H75.1364V32.0435H74.0369V33.2634H75.5443V33.6782H73.583V30.2988H75.5686V30.7137H74.0369Z" fill="#68696B"/>
<path fill-rule="evenodd" clip-rule="evenodd" d="M76.1414 33.5225L76.3062 33.0967C76.5004 33.2313 76.7277 33.3084 76.9626 33.3192C77.1182 33.3261 77.2706 33.2732 77.3894 33.1708C77.442 33.124 77.4837 33.0661 77.5118 33.001C77.5398 32.936 77.5534 32.8654 77.5515 32.7944C77.5519 32.6818 77.521 32.5713 77.4624 32.4757C77.3408 32.3326 77.1856 32.2229 77.0112 32.157L76.7411 32.0306C76.5497 31.9513 76.3847 31.8178 76.2656 31.646C76.1719 31.4849 76.1251 31.3001 76.1306 31.113C76.1289 30.995 76.1521 30.878 76.1987 30.7699C76.2453 30.6618 76.3142 30.5652 76.4007 30.4865C76.585 30.3166 76.8275 30.2268 77.0761 30.2365C77.3445 30.2095 77.6141 30.2733 77.8433 30.4179L77.7055 30.8355C77.6226 30.7784 77.5315 30.7349 77.4354 30.7063C77.3243 30.6662 77.2075 30.6449 77.0896 30.6431C77.023 30.6396 76.9564 30.6496 76.8938 30.6728C76.8311 30.6959 76.7737 30.7316 76.7249 30.7778C76.6809 30.8228 76.6465 30.8765 76.6237 30.9356C76.601 30.9946 76.5903 31.0578 76.5925 31.1212C76.5913 31.2027 76.6079 31.2834 76.6411 31.3575C76.6712 31.4266 76.7165 31.4877 76.7735 31.5361C76.883 31.6142 76.9997 31.6814 77.122 31.7366L77.3921 31.8685C77.5853 31.9381 77.7504 32.0707 77.8618 32.2456C77.9732 32.4205 78.0246 32.6279 78.0081 32.8356C78.0089 32.9592 77.9824 33.0814 77.9305 33.1932C77.8786 33.305 77.8026 33.4034 77.7082 33.4813C77.481 33.6721 77.1921 33.77 76.8978 33.756C76.6282 33.758 76.3644 33.6766 76.1414 33.5225Z" fill="#68696B"/>
<path fill-rule="evenodd" clip-rule="evenodd" d="M65.0113 0.736328C65.0113 0.736328 62.8879 3.60195 62.7096 5.40705C62.5151 7.36051 63.5552 10.0338 66.046 9.80302C67.3319 9.68763 68.3584 8.61336 68.091 7.33029C67.8587 6.2313 66.851 5.85489 65.5705 5.1323C63.8551 4.13771 64.6655 1.30231 65.0113 0.736328Z" fill="#D41F26"/>
</g>
<defs>
<clipPath id="clip0_930_9162">
<rect width="78" height="33" fill="white" transform="translate(0 0.736328)"/>
</clipPath>
</defs>
</svg>
