<svg width="32" height="32" viewBox="0 0 32 32" fill="none" xmlns="http://www.w3.org/2000/svg">
<path d="M16 29.3337L4 22.667V9.33366L16 2.66699L28 9.33366V22.667L16 29.3337ZM12.1333 12.3337C12.6444 11.8003 13.2333 11.3892 13.9 11.1003C14.5667 10.8114 15.2667 10.667 16 10.667C16.7333 10.667 17.4333 10.8114 18.1 11.1003C18.7667 11.3892 19.3556 11.8003 19.8667 12.3337L23.8667 10.1003L16 5.73366L8.13333 10.1003L12.1333 12.3337ZM14.6667 25.5337V21.167C13.4667 20.8559 12.5 20.2225 11.7667 19.267C11.0333 18.3114 10.6667 17.2225 10.6667 16.0003C10.6667 15.7559 10.6778 15.5281 10.7 15.317C10.7222 15.1059 10.7667 14.8892 10.8333 14.667L6.66667 12.3337V21.1003L14.6667 25.5337ZM16 18.667C16.7333 18.667 17.3611 18.4059 17.8833 17.8837C18.4056 17.3614 18.6667 16.7337 18.6667 16.0003C18.6667 15.267 18.4056 14.6392 17.8833 14.117C17.3611 13.5948 16.7333 13.3337 16 13.3337C15.2667 13.3337 14.6389 13.5948 14.1167 14.117C13.5944 14.6392 13.3333 15.267 13.3333 16.0003C13.3333 16.7337 13.5944 17.3614 14.1167 17.8837C14.6389 18.4059 15.2667 18.667 16 18.667ZM17.3333 25.5337L25.3333 21.1003V12.3337L21.1667 14.667C21.2333 14.8892 21.2778 15.1059 21.3 15.317C21.3222 15.5281 21.3333 15.7559 21.3333 16.0003C21.3333 17.2225 20.9667 18.3114 20.2333 19.267C19.5 20.2225 18.5333 20.8559 17.3333 21.167V25.5337Z" fill="#E71615"/>
</svg>
