<svg width="24" height="25" viewBox="0 0 24 25" fill="none" xmlns="http://www.w3.org/2000/svg">
<g clip-path="url(#clip0_285_4040)">
<path d="M8.66085 20.1142C15.4533 20.1142 19.1685 14.4866 19.1685 9.60655C19.1685 9.44672 19.1685 9.28757 19.1577 9.12917C19.8805 8.60642 20.5043 7.9591 21.0002 7.21757C20.3261 7.51622 19.6111 7.71212 18.879 7.7986C19.6499 7.33705 20.2269 6.61112 20.5026 5.75597C19.7776 6.18617 18.9846 6.48932 18.1576 6.65237C16.759 5.1652 14.4196 5.09342 12.9324 6.49202C11.9733 7.39397 11.5664 8.73805 11.864 10.0205C8.8947 9.87167 6.1281 8.46917 4.25287 6.1621C3.2727 7.84952 3.77332 10.0082 5.39625 11.0919C4.80855 11.0745 4.23367 10.916 3.72007 10.6297V10.6765C3.72052 12.4344 4.95975 13.9486 6.68288 14.2967C6.1392 14.4449 5.56875 14.4666 5.01533 14.36C5.49915 15.8644 6.8856 16.895 8.46555 16.9247C7.15785 17.9524 5.54242 18.5103 3.87915 18.5087C3.5853 18.5081 3.29175 18.4903 3 18.4554C4.68885 19.5392 6.65392 20.1141 8.66062 20.1114" fill="#121212"/>
</g>
<defs>
<clipPath id="clip0_285_4040">
<rect width="24" height="24" fill="white" transform="translate(0 0.800049)"/>
</clipPath>
</defs>
</svg>
