<svg width="108" height="51" viewBox="0 0 108 51" fill="none" xmlns="http://www.w3.org/2000/svg">
<g clip-path="url(#clip0_930_9159)">
<path fill-rule="evenodd" clip-rule="evenodd" d="M99.599 48.2589L99.6372 48.2203V49.5715C99.14 50.0348 98.8722 50.1892 98.4132 50.1892C97.8778 50.1892 97.4953 49.9962 97.4953 49.3785C97.4953 48.4519 98.4898 48.2203 99.0252 48.2203C99.1017 48.2203 99.4077 48.2589 99.599 48.2589ZM43.5267 48.2589C43.5649 48.2975 43.6032 48.2975 43.6414 48.2203V49.5329C43.2207 50.0348 42.7617 50.1893 42.3793 50.1893C41.882 50.1893 41.4995 50.0348 41.4995 49.4171C41.4995 48.4905 42.4175 48.2203 42.9912 48.2203C43.0677 48.2203 43.3355 48.2203 43.5267 48.2589ZM38.6309 48.6064C38.6309 49.8804 37.6747 50.0348 36.8332 50.0348C36.7567 50.0348 36.3742 50.0348 36.183 49.9962V47.2551C36.4125 47.2937 36.7949 47.2551 36.9097 47.2551C37.8659 47.2551 38.6309 47.4481 38.6309 48.6064ZM29.7189 46.7918V49.726C29.4512 50.0348 28.9922 50.1506 28.7627 50.1506C27.4623 50.1506 27.118 49.224 27.118 48.2589C27.118 47.3709 27.577 46.2899 28.7245 46.2899C29.0305 46.2899 29.4512 46.3671 29.7189 46.7918ZM23.5227 46.3285C23.8287 46.3671 24.4407 47.0234 24.4407 47.3709V47.564H21.6102V47.4481C21.8397 46.6374 22.3752 46.2899 23.0637 46.2899C23.1402 46.2899 23.3697 46.2899 23.5227 46.3285ZM66.8965 48.1817C66.8965 48.9538 66.6669 50.1506 65.4812 50.1506C64.2573 50.1506 64.1426 48.9152 64.1426 48.2203C64.1426 47.5253 64.3338 46.2513 65.5195 46.2513C66.7052 46.2513 66.8965 47.4481 66.8965 48.1817ZM90.3045 45.5564V50.8842H89.3866V46.3285H88.6598V45.5564H90.3045ZM15.4142 45.5564V50.8842H14.458V46.3285H13.7312V45.5564H15.4142ZM78.6389 48.5677H76.6117L77.6827 45.5178L78.6389 48.5677ZM99.7903 45.7108C100.288 45.9039 100.632 46.869 100.632 47.2937V49.8031C100.67 50.0348 100.747 50.3051 101.053 50.4981V50.9614H100.594C100.288 50.8842 99.8286 50.6139 99.7521 50.3051C99.4844 50.7684 98.4899 51 98.0691 51C97.113 51 96.5392 50.1892 96.5392 49.3785C96.5392 47.95 98.0691 47.4481 98.9871 47.4481C99.0636 47.4481 99.4079 47.5253 99.6374 47.564C99.6756 47.5253 99.6756 47.4481 99.6756 47.3709C99.6756 46.5216 99.0254 46.2899 98.4899 46.2899C98.1074 46.2899 97.5337 46.4058 97.2277 46.7532C97.0747 46.5216 96.8069 46.0969 96.8069 45.981C96.8069 45.9039 97.1512 45.7108 97.3042 45.6722C97.4572 45.595 97.6867 45.5178 97.9544 45.4792C98.0691 45.4406 98.3752 45.4406 98.4516 45.4406C98.8724 45.4406 99.4079 45.5564 99.7903 45.7108ZM95.7742 45.981C95.6595 46.1741 95.5065 46.4058 95.3535 46.6374C94.8181 46.3285 94.5503 46.2513 94.0913 46.2513C92.7526 46.2513 92.4466 47.4095 92.4466 48.2589C92.4466 49.3785 92.9821 50.1892 94.1296 50.1892C94.512 50.1892 95.0857 49.9576 95.43 49.6873L95.8125 50.4595C95.5065 50.7297 94.4355 51 93.9383 51C92.9439 51 91.8347 50.3822 91.4904 48.9538C91.4904 48.8766 91.4521 48.7222 91.4521 48.6449V47.9114C91.6052 46.0969 92.9056 45.4406 94.1296 45.4406C94.6268 45.4406 95.3153 45.6722 95.7742 45.981ZM88.2393 45.5178L87.8951 46.4443C87.7038 46.3671 87.3213 46.2513 87.2448 46.2513C86.6329 46.2513 86.0209 46.9463 86.0209 47.4867V50.8842H85.0647V45.5564H86.0209C86.0209 45.788 86.0209 46.0583 86.0591 46.2899C86.3651 45.6336 87.0536 45.4406 87.5125 45.4406C87.6273 45.4406 88.0098 45.4792 88.2393 45.5178ZM72.1366 45.595C72.0219 45.9039 71.9071 46.1741 71.7924 46.4443C71.6012 46.3671 71.2187 46.2513 71.1422 46.2513C70.5302 46.2513 69.9182 46.9463 69.9182 47.4867V50.8842H68.962V45.5564H69.9182C69.9182 45.788 69.9182 46.0583 69.9565 46.2899C70.2625 45.6336 70.951 45.4406 71.41 45.4406C71.6394 45.4406 72.1366 45.595 72.1366 45.595ZM67.8911 48.1817C67.8911 49.5329 67.3173 51 65.5197 51C63.7602 51 63.11 49.5329 63.11 48.1817C63.11 46.7532 63.9132 45.4406 65.5197 45.4406C67.3556 45.4406 67.8911 46.869 67.8911 48.1817ZM48.9964 45.4792C49.6466 45.4792 50.2586 46.4443 50.2586 47.0234V50.8842H49.3406V47.3709C49.3023 46.5602 48.8433 46.2513 48.2696 46.2513C48.1549 46.2513 48.0784 46.2127 48.0401 46.2513C47.8107 46.2899 47.0074 46.6374 47.0074 46.9463V50.8842H46.0895V45.5564H46.7397C46.8162 45.7494 46.9309 45.981 47.0074 46.1741C47.3899 45.6336 48.0019 45.4406 48.5374 45.4406C48.6139 45.4406 48.8433 45.4792 48.9964 45.4792ZM44.4065 46.483C44.4447 46.676 44.5978 46.9849 44.5978 47.1007V49.6101C44.6743 49.8418 44.636 50.2664 45.0185 50.4981V50.9614H44.5978C44.33 50.9228 43.8328 50.6911 43.7563 50.3051C43.5268 50.7684 42.4176 51 42.0351 51C41.1171 51 40.5052 50.1892 40.5052 49.3785C40.5052 47.95 42.0351 47.4481 42.9531 47.4481C43.0296 47.4481 43.412 47.5253 43.6415 47.564C43.6798 47.5253 43.6798 47.5253 43.6798 47.4095C43.6798 46.6374 43.1443 46.2899 42.4941 46.2899C42.0351 46.2899 41.6526 46.3671 41.2319 46.7532C41.0406 46.6374 40.8494 46.1741 40.7729 45.981C41.1554 45.6722 41.9204 45.4406 42.4559 45.4406C42.9913 45.4406 44.1388 45.595 44.4065 46.483ZM25.397 47.7184C25.397 47.7956 25.397 48.1044 25.3588 48.2975H21.5339V48.6064C21.6104 49.6873 22.4136 50.1893 23.2168 50.1893C23.6376 50.1893 24.02 50.0734 24.5173 49.726C24.6703 49.919 24.785 50.1506 24.938 50.3823C24.6703 50.7297 23.4846 51 23.0256 51C21.3427 51 20.5395 49.6101 20.5395 48.2589C20.5395 46.8304 21.4192 45.4406 23.0256 45.4406C24.4408 45.4406 25.397 46.2513 25.397 47.7184ZM11.7806 45.595C11.8953 45.6336 12.2013 45.9425 12.316 46.0969C12.3543 46.0969 12.6603 46.869 12.6603 47.0235V50.8842H11.7423V47.3709C11.5893 46.483 11.2833 46.2513 10.6714 46.2513C10.2506 46.2513 9.82988 46.4058 9.40916 46.9463V50.8842H8.4912V45.5564H9.14141C9.21788 45.7494 9.33262 45.9811 9.40916 46.1741C9.79161 45.6336 10.4036 45.4406 10.9391 45.4406C11.0156 45.4406 11.5128 45.4792 11.7806 45.595ZM38.2485 45.3634C38.2485 46.3671 37.4071 46.483 36.7568 46.483H36.1831V44.3982H36.7951C37.3688 44.3982 38.2485 44.3982 38.2485 45.3634ZM18.168 45.5564H19.6215V46.2899H18.168V49.3013C18.3593 49.9962 18.627 50.1893 19.086 50.1893C19.2008 50.1893 19.6215 50.0734 19.851 49.9962C19.8892 50.2664 19.9658 50.5753 20.004 50.8456C19.5832 50.9228 18.8183 51 18.7036 51C17.9003 51 17.2118 50.2279 17.2118 49.4943V46.2899H16.5999V45.5564H17.2118V44.4368C17.5178 44.321 17.8621 44.1665 18.168 44.0893L18.168 45.5564ZM2.98339 43.5874V48.5291C3.13637 49.6873 3.74834 50.112 4.51331 50.112C5.16358 50.112 5.77552 49.8032 6.08153 48.9152V43.5874H7.07598V49.031C6.84647 50.6525 5.5078 51 4.51331 51C3.7101 51 2.63917 50.7684 2.18018 49.726C2.10365 49.4943 2.02717 49.1082 2.02717 49.031V43.5874H2.98339ZM90.4576 44.0893C90.4576 44.4754 90.2281 44.707 89.8839 44.707C89.5014 44.707 89.3101 44.3596 89.3101 44.1279C89.3101 43.7419 89.5014 43.5488 89.8839 43.5488C90.2281 43.5488 90.4576 43.7419 90.4576 44.0893ZM15.5672 44.0893C15.5672 44.4754 15.223 44.707 14.9552 44.707C14.5728 44.707 14.3815 44.3596 14.3815 44.1279C14.3815 43.7419 14.6875 43.5488 14.9552 43.5488C15.2995 43.5488 15.5672 43.7419 15.5672 44.0893ZM39.2813 45.2861C39.2813 45.8267 39.0136 46.3671 38.2486 46.7532L38.2103 46.8304C39.3195 47.0621 39.7403 47.9114 39.7403 48.7608C39.7403 48.838 39.6638 49.1855 39.6255 49.3785C39.5108 50.2279 38.1721 50.8842 37.5219 50.8842H35.1504V43.5102H36.9481C37.9809 43.5102 39.2813 43.8191 39.2813 45.2861ZM77.8358 43.4716L80.5897 50.8842H79.4804C79.3275 50.3823 79.1362 49.8418 78.945 49.3399H76.3441C76.1146 49.8418 75.9233 50.3823 75.7704 50.8842H74.6611C75.6174 48.4133 76.6118 45.9425 77.568 43.4716H77.8358ZM84.3762 43.5102C84.338 43.5874 84.1085 44.2051 84.0702 44.2051C83.9555 44.2051 83.6878 44.1279 83.573 44.1279C82.8846 44.1279 82.5786 44.7456 82.5786 45.2861C82.5786 45.3634 82.6168 45.4406 82.6168 45.5564H83.6878V46.3285H82.6168V50.8842H81.6988V46.3285H80.9339V45.5564H81.6988C81.6606 44.2823 82.3108 43.3558 83.4965 43.3558C83.573 43.3558 84.0702 43.433 84.3762 43.5102ZM62.8423 43.5102L62.6128 44.2051C62.4599 44.1665 62.1921 44.1279 62.0774 44.1279C61.6566 44.1279 61.0829 44.5526 61.0829 45.0159V45.5564H62.1921V46.3285H61.0829V50.8842H60.1649V46.3285H59.3999V45.5564H60.1649C60.1649 44.2437 60.8152 43.3558 61.9626 43.3558C62.0774 43.3558 62.5746 43.433 62.8423 43.5102ZM52.5535 43.3558V47.95L54.5424 45.5564H55.6516L54.0069 47.564L56.0341 50.8842H55.0014L53.3567 48.2203C53.1272 48.4905 52.8212 48.7994 52.5535 49.0697V50.8842H51.5973V43.3558L52.5535 43.3558ZM30.6753 43.3558V50.8842H29.7573C29.7573 50.7684 29.7573 50.6525 29.7191 50.5367C29.2601 50.8842 28.8012 50.9614 28.3422 50.9614C26.6592 50.9614 26.0855 49.5329 26.0855 48.3361C26.0855 47.1393 26.8887 45.4406 28.5334 45.4406C28.8012 45.4406 29.4514 45.5564 29.7573 45.7881V43.3558L30.6753 43.3558ZM35.4564 25.1332C37.7131 25.6351 38.7075 26.9091 38.7075 28.6851C38.7075 28.7623 38.6693 29.4958 38.5545 29.8819C38.4398 30.268 38.2294 30.609 37.8661 31.0787C36.7361 32.5393 34.5767 33.704 33.238 33.704H29.4131C30.0251 30.8857 30.5606 27.9901 31.1726 25.2105C31.1726 25.1333 31.2108 25.0947 31.2873 25.0561L34.1942 24.9789C34.2707 24.9789 35.0357 25.056 35.4564 25.1332ZM60.8151 28.3762H53.8921L58.9409 20.5776L60.8151 28.3762ZM39.3578 18.2226C39.3578 18.2998 39.2047 19.0334 39.1665 19.4194C39.09 20.2302 38.3633 21.427 37.2923 22.0833C36.9098 22.315 35.3417 23.2415 35.1122 23.2415H31.708C31.8228 22.6238 31.9375 21.9675 32.0523 21.3498C32.1288 20.9637 32.2435 20.539 32.2817 20.153C32.3583 19.7669 32.473 19.3422 32.5113 18.9561C32.5878 18.5701 32.7025 18.1454 32.7407 17.7593C32.8173 17.3732 32.8491 17.1609 32.932 16.5625C33.0149 15.874 32.9639 15.8483 33.3527 15.8676L36.2214 15.7904C37.4453 15.7904 39.3578 16.4467 39.3578 18.2226ZM62.0773 12.7404L67.8146 36.5609H62.6511L61.7331 31.8895H51.7503L48.6903 36.5609H44.4065L60.3944 12.7404H62.0773ZM39.243 12.7404C42.6853 13.1265 44.2918 14.748 44.2918 17.4505C44.2918 20.346 42.3029 22.508 38.8222 23.6662C38.8605 23.7048 38.937 23.7048 38.9752 23.7048C41.5379 24.0909 43.3738 25.5965 43.3738 27.9516C43.3738 31.6965 41.0789 35.1711 36.1066 36.2907C35.8771 36.3293 34.3472 36.6381 33.8117 36.6381H24.0583L28.9924 12.7404L39.243 12.7404ZM8.14691 12.7404C7.76442 14.7866 7.34369 16.7169 6.96118 18.6473C6.65523 20.0757 6.34922 21.5814 6.0815 23.0485C5.69901 25.2105 5.08701 27.2953 5.08701 29.4572C5.08701 31.8123 5.85201 33.9357 8.87362 33.9357C11.7805 33.9357 14.6492 32.0053 15.5671 28.0674C16.7528 22.9713 17.7473 17.8365 18.8183 12.7404H23.1786V12.8562C21.9546 18.4542 20.8071 24.0523 19.5449 29.6117C18.8757 31.3683 18.5792 31.6482 18.0533 32.3528C15.7583 35.5571 12.6985 36.5995 10.0594 36.9084C9.7534 36.947 9.21787 37.0242 9.10313 37.0242H6.77C6.31101 36.9856 5.81378 36.9084 5.39306 36.8312C4.9723 36.754 4.51331 36.6382 4.09259 36.5223C1.14746 35.7888 0 32.9319 0 30.8085V29.8819C0.0382371 29.6117 0.0382371 29.3028 0.0765029 28.994C1.1857 23.589 2.29492 18.1454 3.40412 12.7404L8.14691 12.7404ZM87.4358 36.4065C86.8238 36.4837 85.6382 36.6382 85.5234 36.6382H75.9995L82.4253 6.17717C85.7912 12.8176 89.157 19.5352 92.4847 26.2528C93.0584 27.7199 93.5939 29.3027 93.5939 30.8084C93.5939 34.1672 91.2607 35.7888 87.4358 36.4065ZM101.129 30.461C99.1782 26.6389 97.2275 22.7782 95.3151 18.9561C94.2441 16.8328 93.1731 14.6322 92.1022 12.5474C91.7579 11.8138 91.3755 11.1575 91.0695 10.4626C90.7252 9.69045 89.9603 7.33543 89.9603 6.21583V5.40505C89.9985 5.01898 90.0367 4.55568 90.1515 4.20824C91.2989 0.540581 95.5445 0.193101 98.0689 3.72465e-05L107.593 0L101.129 30.461Z" fill="url(#paint0_linear_930_9159)"/>
</g>
<defs>
<linearGradient id="paint0_linear_930_9159" x1="5379.64" y1="0" x2="5379.64" y2="5100" gradientUnits="userSpaceOnUse">
<stop stop-color="#ED1500"/>
<stop offset="1" stop-color="#D70900"/>
</linearGradient>
<clipPath id="clip0_930_9159">
<rect width="108" height="51" fill="white"/>
</clipPath>
</defs>
</svg>
