<svg width="24" height="25" viewBox="0 0 24 25" fill="none" xmlns="http://www.w3.org/2000/svg">
<g clip-path="url(#clip0_285_4037)">
<path d="M22.0576 7.74544C21.9381 7.30147 21.7041 6.89667 21.3789 6.57157C21.0538 6.24646 20.649 6.01244 20.2051 5.89294C18.5701 5.45044 12.0001 5.45044 12.0001 5.45044C12.0001 5.45044 5.43008 5.45044 3.79508 5.89294C3.35111 6.01244 2.94631 6.24646 2.6212 6.57157C2.29609 6.89667 2.06208 7.30147 1.94258 7.74544C1.63729 9.41289 1.48914 11.1053 1.50008 12.8004C1.48914 14.4956 1.63729 16.188 1.94258 17.8554C2.06208 18.2994 2.29609 18.7042 2.6212 19.0293C2.94631 19.3544 3.35111 19.5884 3.79508 19.7079C5.43008 20.1504 12.0001 20.1504 12.0001 20.1504C12.0001 20.1504 18.5701 20.1504 20.2051 19.7079C20.649 19.5884 21.0538 19.3544 21.3789 19.0293C21.7041 18.7042 21.9381 18.2994 22.0576 17.8554C22.3629 16.188 22.511 14.4956 22.5001 12.8004C22.511 11.1053 22.3629 9.41289 22.0576 7.74544ZM9.90008 15.9504V9.65044L15.3526 12.8004L9.90008 15.9504Z" fill="#121212"/>
</g>
<defs>
<clipPath id="clip0_285_4037">
<rect width="24" height="24" fill="white" transform="translate(0 0.800049)"/>
</clipPath>
</defs>
</svg>
