<svg width="115" height="38" viewBox="0 0 115 38" fill="none" xmlns="http://www.w3.org/2000/svg">
<g clip-path="url(#clip0_730_483)">
<path d="M0.000488281 31.7274V11.5674H8.46699C9.59966 11.5449 10.724 11.7657 11.764 12.2149C12.6734 12.6053 13.4503 13.2508 14.0005 14.0734C14.5381 14.9396 14.8073 15.9455 14.774 16.9644V17.2794C14.829 18.3661 14.509 19.4386 13.8675 20.3174C13.2994 21.0493 12.5345 21.6041 11.6625 21.9169V22.3789C12.3181 22.3888 12.9448 22.6508 13.4125 23.1104C13.6457 23.3751 13.8241 23.6833 13.9377 24.0173C14.0512 24.3513 14.0975 24.7044 14.074 25.0564V31.7274H10.924V25.4764C10.9466 25.0274 10.802 24.5859 10.518 24.2374C10.3479 24.0722 10.1442 23.9456 9.92064 23.8665C9.69712 23.7874 9.45914 23.7575 9.22299 23.7789H3.11199V31.7274H0.000488281ZM3.11199 20.9544H8.12049C9.23349 20.9544 10.098 20.6744 10.714 20.1074C11.0247 19.8091 11.2677 19.4476 11.4265 19.0472C11.5853 18.6469 11.6562 18.2171 11.6345 17.7869V17.5594C11.6569 17.1304 11.5876 16.7016 11.4313 16.3015C11.275 15.9014 11.0352 15.5391 10.728 15.2389C10.1237 14.6766 9.25449 14.3943 8.12049 14.3919H3.11199V20.9544Z" fill="#E21313"/>
<path d="M24.0736 32.13C22.7588 32.159 21.4588 31.8467 20.3006 31.2235C19.2336 30.6268 18.3602 29.7364 17.7841 28.658C17.1574 27.4733 16.8442 26.1479 16.8741 24.808V24.458C16.8436 23.1134 17.1504 21.7825 17.7666 20.587C18.3345 19.5108 19.1994 18.6204 20.2586 18.0215C21.3916 17.4017 22.667 17.0891 23.9581 17.115C25.2148 17.0916 26.4544 17.4084 27.5456 18.032C28.5659 18.632 29.3986 19.5047 29.9502 20.552C30.5398 21.7168 30.832 23.0094 30.8007 24.3145V25.438H19.8981C19.8915 25.9944 19.9993 26.5462 20.2149 27.0592C20.4304 27.5721 20.7491 28.0353 21.1511 28.42C21.9656 29.1715 23.043 29.5725 24.1506 29.5365C25.2636 29.5365 26.1036 29.2868 26.6706 28.7875C27.2205 28.308 27.6661 27.7207 27.9797 27.062L30.4297 28.329C30.1111 28.9398 29.7197 29.5098 29.2642 30.0265C28.7075 30.6588 28.0258 31.1688 27.2621 31.5245C26.259 31.9654 25.1686 32.1725 24.0736 32.13ZM19.9296 23.1735H27.7907C27.7781 22.6976 27.6697 22.2291 27.4718 21.7961C27.2739 21.3631 26.9907 20.9745 26.6391 20.6535C25.8776 20.0316 24.9121 19.7147 23.9302 19.7645C22.9429 19.721 21.9744 20.0439 21.2106 20.671C20.4876 21.3171 20.0309 22.2092 19.9296 23.1735Z" fill="#E21313"/>
<path d="M39.5503 32.13C38.3888 32.1417 37.2463 31.835 36.2467 31.2433C35.2472 30.6516 34.4288 29.7974 33.8803 28.7735C33.2448 27.5632 32.9325 26.2094 32.9738 24.843V24.4125C32.937 23.0527 33.244 21.7056 33.8663 20.496C34.4116 19.4524 35.2401 18.5838 36.2568 17.99C37.257 17.4109 38.3947 17.1123 39.5503 17.1255C40.3384 17.1053 41.1238 17.2238 41.8708 17.4755C42.4312 17.6749 42.9497 17.9763 43.4003 18.3645C43.7697 18.6776 44.0813 19.0531 44.3208 19.474H44.7828V11.5675H47.7473V31.7275H44.8353V29.7115H44.3768C43.9546 30.383 43.3893 30.9531 42.7213 31.381C41.9793 31.878 40.9223 32.13 39.5503 32.13ZM40.3868 29.5365C40.9731 29.5562 41.5573 29.457 42.1041 29.2446C42.651 29.0322 43.1491 28.7112 43.5683 28.301C44.3897 27.475 44.8003 26.2943 44.8003 24.759V24.5C44.8003 22.981 44.3873 21.8143 43.5613 21C42.6961 20.2033 41.563 19.7611 40.3868 19.7611C39.2107 19.7611 38.0776 20.2033 37.2123 21C36.3793 21.826 35.9617 22.9927 35.9593 24.5V24.759C35.9593 26.292 36.377 27.4727 37.2123 28.301C37.6283 28.7098 38.1228 29.0301 38.6661 29.2424C39.2093 29.4548 39.7899 29.5548 40.3728 29.5365H40.3868Z" fill="#E21313"/>
<path d="M51.4014 37.4848V17.5349H54.3099V19.5824H54.7719C55.1866 18.8964 55.7529 18.3146 56.4274 17.8814C57.1659 17.3844 58.2264 17.1324 59.6089 17.1324C60.7566 17.1203 61.8862 17.419 62.8779 17.9969C63.8869 18.5942 64.7135 19.4559 65.2684 20.4889C65.9035 21.6993 66.2157 23.0531 66.1749 24.4194V24.8499C66.2155 26.2145 65.9084 27.5671 65.2824 28.7804C64.7332 29.8175 63.9053 30.6805 62.8919 31.2724C61.8946 31.8491 60.7608 32.1477 59.6089 32.1369C58.8175 32.1558 58.0288 32.0374 57.2779 31.7869C56.7155 31.5992 56.1965 31.3005 55.7519 30.9084C55.3922 30.5848 55.081 30.2111 54.8279 29.7989H54.3694V37.4988L51.4014 37.4848ZM58.7514 29.5364C59.3405 29.5583 59.928 29.4601 60.478 29.2477C61.0279 29.0353 61.5289 28.7131 61.9504 28.3009C62.774 27.4749 63.1859 26.2942 63.1859 24.7589V24.4999C63.1859 22.9809 62.7694 21.8142 61.9364 20.9999C61.0733 20.2032 59.9417 19.7608 58.7671 19.7608C57.5925 19.7608 56.461 20.2032 55.5979 20.9999C54.7649 21.8259 54.3484 22.9925 54.3484 24.4999V24.7589C54.3484 26.2919 54.7649 27.4725 55.5979 28.3009C56.0122 28.708 56.5044 29.0272 57.0451 29.2395C57.5858 29.4518 58.1637 29.5528 58.7444 29.5364H58.7514Z" fill="#E21313"/>
<path d="M73.5461 32.1299C72.6137 32.1451 71.6881 31.9688 70.8266 31.6119C70.0618 31.2927 69.403 30.7636 68.9261 30.0859C68.4415 29.3629 68.1966 28.5058 68.2261 27.6359C68.1902 26.7707 68.4359 25.9172 68.9261 25.2034C69.4162 24.5442 70.0857 24.04 70.8546 23.7509C71.7408 23.4104 72.6844 23.244 73.6336 23.2609H77.9526V22.3369C77.9695 21.9725 77.9118 21.6086 77.783 21.2673C77.6542 20.9261 77.457 20.6147 77.2036 20.3524C76.7066 19.8519 75.9366 19.6034 74.9006 19.6034C73.8646 19.6034 73.1051 19.8414 72.5696 20.3209C72.0243 20.8162 71.6505 21.4719 71.5021 22.1934L68.7371 21.3009C68.9641 20.5343 69.3412 19.8204 69.8466 19.2009C70.397 18.5464 71.0919 18.0288 71.8766 17.6889C72.8409 17.2802 73.8817 17.0833 74.9286 17.1114C76.7719 17.1114 78.2221 17.5781 79.2791 18.5114C80.3361 19.4447 80.8599 20.7876 80.8506 22.5399V28.3849C80.8506 28.9624 81.1201 29.2494 81.6591 29.2494H82.8666V31.7274H80.6511C80.0594 31.7536 79.4777 31.5687 79.0096 31.2059C78.8026 31.0377 78.6376 30.8236 78.5276 30.5806C78.4177 30.3376 78.3658 30.0724 78.3761 29.8059V29.7219H77.9421C77.7381 30.0773 77.5039 30.4146 77.2421 30.7299C76.8712 31.159 76.4082 31.4988 75.8876 31.7239C75.1446 32.0234 74.3465 32.1618 73.5461 32.1299ZM73.9801 29.6799C75.0369 29.7286 76.0708 29.3617 76.8606 28.6579C77.2307 28.2953 77.5195 27.8581 77.7078 27.3754C77.8961 26.8926 77.9795 26.3753 77.9526 25.8579V25.5709H73.8051C73.1358 25.5354 72.472 25.7078 71.9046 26.0644C71.6685 26.2302 71.4787 26.4535 71.3532 26.7132C71.2276 26.9729 71.1704 27.2604 71.1871 27.5484C71.177 27.8487 71.2399 28.1469 71.3704 28.4176C71.5008 28.6882 71.6949 28.9232 71.9361 29.1024C72.5339 29.5175 73.2534 29.7208 73.9801 29.6799Z" fill="#E21313"/>
<path d="M86.3035 37.4851V34.8951H94.224C94.7595 34.8951 95.029 34.6046 95.029 34.0306V29.6521H94.5705C94.3756 30.0674 94.1064 30.4434 93.776 30.7616C93.3681 31.1512 92.8827 31.4505 92.3515 31.6401C91.6301 31.893 90.8686 32.0116 90.1045 31.9901C89.0988 32.007 88.1064 31.7583 87.2275 31.2691C86.3819 30.7886 85.6919 30.0756 85.2395 29.2146C84.7369 28.2424 84.4889 27.1587 84.5185 26.0646V17.5281H87.5005V25.8511C87.5005 27.0796 87.805 27.9861 88.421 28.5741C89.1262 29.1924 90.0467 29.5081 90.983 29.4526C91.5288 29.4748 92.0729 29.378 92.5776 29.1689C93.0822 28.9598 93.5353 28.6434 93.9055 28.2416C94.6451 27.4366 95.015 26.27 95.015 24.7416V17.5281H97.9795V34.6361C97.998 35.015 97.9399 35.3938 97.8088 35.7498C97.6778 36.1058 97.4763 36.4317 97.2165 36.7081C96.9387 36.9751 96.6089 37.182 96.2475 37.3157C95.8862 37.4494 95.5012 37.5071 95.1165 37.4851H86.3035Z" fill="#E21313"/>
<path d="M107.443 11.935V21.6265L102.627 26.4425V11.935H88.1198V11.9035L88.1023 11.9175L83.3003 7.11902H102.627L107.443 11.935Z" fill="#E21313"/>
<path d="M114.034 5.33052V21.6265L109.218 26.4425V5.33052H94.7071V5.29902L94.6896 5.31652L89.8911 0.514526H109.218L114.034 5.33052Z" fill="#E21313"/>
</g>
<defs>
<clipPath id="clip0_730_483">
<rect width="114.034" height="36.9705" fill="white" transform="translate(0 0.514771)"/>
</clipPath>
</defs>
</svg>
